<?xml version="1.0" encoding="UTF-8"?>
<svg id="Layer_2" data-name="Layer 2" xmlns="http://www.w3.org/2000/svg" viewBox="0 0 218.69 218.69">
  <defs>
    <style>
      .cls-1, .cls-2 {
        fill: none;
      }

      .cls-3 {
        fill: #fff;
      }

      .cls-4 {
        fill: #7c5ba6;
      }

      .cls-2 {
        stroke: #fff;
        stroke-miterlimit: 10;
      }
    </style>
  </defs>
  <g id="Layer_1-2" data-name="Layer 1">
    <g>
      <rect class="cls-1" width="218.69" height="218.69"/>
      <circle class="cls-4" cx="109.34" cy="109.34" r="30.52"/>
      <path class="cls-2" d="m202.65,93.04c.92,5.3,1.4,10.74,1.4,16.3,0,52.31-42.4,94.71-94.71,94.71S14.63,161.65,14.63,109.34c0-27.18,11.45-51.69,29.79-68.96"/>
      <g>
        <path class="cls-3" d="m43.42,29.75l5.51-3.8,7.81,6.79-3.57-9.7,5.51-3.79,9.34,13.56-3.43,2.36-7.12-10.34,4.48,12.16-3.11,2.14-9.76-8.52,7.12,10.34-3.43,2.36-9.34-13.56Z"/>
        <path class="cls-3" d="m65.74,24.82c-1.01-2.49-1.11-4.71-.29-6.66.82-1.95,2.47-3.43,4.95-4.44,2.54-1.03,4.77-1.15,6.7-.35,1.93.8,3.39,2.43,4.39,4.89.73,1.78,1.02,3.37.89,4.75-.14,1.38-.64,2.63-1.52,3.72s-2.16,1.99-3.85,2.68c-1.72.7-3.25,1.01-4.6.92-1.35-.09-2.62-.58-3.8-1.48-1.18-.9-2.14-2.24-2.86-4.02Zm4.72-1.9c.63,1.54,1.36,2.53,2.21,2.97.85.44,1.76.46,2.75.06,1.01-.41,1.66-1.06,1.95-1.95s.08-2.18-.61-3.89c-.58-1.44-1.3-2.37-2.15-2.79s-1.77-.44-2.76-.03c-.95.39-1.58,1.03-1.88,1.94-.3.91-.14,2.14.5,3.69Z"/>
        <path class="cls-3" d="m82.76,9.56l5-.93,1.05,5.67,5.47-1.01-1.05-5.67,5.02-.93,3,16.19-5.02.93-1.21-6.55-5.47,1.01,1.21,6.55-5,.93-3-16.19Z"/>
        <path class="cls-3" d="m103.07,6.56l5.1-.18.58,16.45-5.1.18-.58-16.45Z"/>
        <path class="cls-3" d="m111.79,6.14l15.39,1.51-.4,4.05-5.16-.51-1.21,12.34-5.06-.5,1.21-12.34-5.16-.51.4-4.05Z"/>
        <path class="cls-3" d="m139.07,10.49l8.9,3.38c1.48.56,2.48,1.36,3,2.4.52,1.04.57,2.1.16,3.18-.34.91-.92,1.58-1.74,2.02-.54.29-1.23.42-2.05.4,1.01.69,1.65,1.45,1.92,2.3.28.85.23,1.76-.14,2.74-.3.8-.76,1.45-1.37,1.94s-1.31.81-2.1.93c-.49.08-1.15.02-2-.18-1.12-.27-1.86-.47-2.21-.6l-8.21-3.11,5.84-15.39Zm.21,13.91l2.43.92c.82.31,1.45.38,1.9.22.45-.16.76-.49.95-.98.17-.46.15-.88-.08-1.29s-.76-.76-1.59-1.08l-2.42-.92-1.18,3.12Zm2.29-6.05l2.07.78c.74.28,1.31.35,1.69.2.39-.15.67-.46.86-.94.17-.45.16-.85-.04-1.22-.2-.36-.65-.68-1.37-.95l-2.1-.8-1.11,2.92Z"/>
        <path class="cls-3" d="m158.18,34.64l-4.93-3.01-2.1,1.9-4.43-2.71,13.86-10.83,4.74,2.89-3.29,17.28-4.55-2.78.71-2.75Zm.95-3.59l1.53-6-4.62,4.12,3.09,1.88Z"/>
        <path class="cls-3" d="m172.77,28.22l3.93,3.24-10.47,12.71-3.93-3.24,10.47-12.71Z"/>
        <path class="cls-3" d="m168.33,45.7l12.15-11.11,5.72,6.26c1.06,1.16,1.77,2.14,2.13,2.93.36.8.45,1.63.25,2.5-.2.87-.68,1.66-1.45,2.36-.67.62-1.39,1-2.14,1.16s-1.51.13-2.27-.1c-.49-.14-1.05-.44-1.69-.88.26.58.41,1.05.45,1.39.03.23,0,.62-.09,1.18-.09.56-.18.97-.27,1.22l-1.86,5.04-3.88-4.24,1.88-5.4c.25-.69.35-1.21.31-1.54-.06-.44-.25-.83-.56-1.18l-.3-.33-4.93,4.51-3.45-3.77Zm10.67-2.84l1.45,1.58c.16.17.52.45,1.08.84.28.2.59.29.94.26s.66-.17.92-.41c.39-.36.58-.76.56-1.2-.02-.44-.34-1-.97-1.69l-1.51-1.65-2.47,2.26Z"/>
        <path class="cls-3" d="m192.67,47.81l2.42,4.18-7.1,6.13,9.25-2.42,2.42,4.16-6.68,6.83,8.84-3.11,2.41,4.16-16.06,5.12-2.5-4.32,7.52-7.7-10.41,2.71-2.5-4.32,12.4-11.43Z"/>
        <path class="cls-3" d="m195.21,84.96l-1.75-5.5-2.83.06-1.58-4.95,17.57.9,1.68,5.29-13.81,10.89-1.62-5.08,2.34-1.61Zm3.07-2.09l5.09-3.53-6.18.08,1.1,3.44Z"/>
      </g>
    </g>
  </g>
</svg>