<svg width="1475" height="442" viewBox="0 0 1475 442" fill="none" xmlns="http://www.w3.org/2000/svg">
<circle cx="103.5" cy="214.5" r="87.5" fill="#E97533"/>
<circle cx="420.5" cy="214.5" r="87.5" fill="#6D33E9"/>
<circle cx="737.5" cy="214.5" r="87.5" fill="#339DE9"/>
<circle cx="1054.5" cy="214.5" r="87.5" fill="#CD2222"/>
<circle cx="1371.5" cy="214.5" r="87.5" fill="#1A9653"/>
<circle cx="103.5" cy="214.5" r="103" stroke="#D9D9D9" stroke-dasharray="6 6"/>
<circle cx="420.5" cy="214.5" r="103" stroke="#D9D9D9" stroke-dasharray="6 6"/>
<circle cx="737.5" cy="214.5" r="103" stroke="#D9D9D9" stroke-dasharray="6 6"/>
<circle cx="1054.5" cy="214.5" r="103" stroke="#D9D9D9" stroke-dasharray="6 6"/>
<circle cx="1371.5" cy="214.5" r="103" stroke="#D9D9D9" stroke-dasharray="6 6"/>
<g clip-path="url(#clip0_3_82)">
<path d="M162 221.104C161.395 222.08 160.51 222.348 159.392 222.318C157.114 222.257 154.833 222.299 152.39 222.299C152.39 222.789 152.39 223.191 152.39 223.592C152.39 227.887 152.396 232.186 152.39 236.481C152.38 240.369 149.931 242.811 146.041 242.83C144.407 242.836 142.773 242.83 141.005 242.83V257.973H137.292V242.86H132.809V239.179H133.997C137.921 239.179 141.845 239.182 145.769 239.179C147.986 239.179 148.734 238.44 148.737 236.256C148.74 231.276 148.737 226.293 148.737 221.314C148.737 219.172 149.266 218.655 151.461 218.649C153.205 218.649 154.946 218.649 156.873 218.649C156.61 218.132 156.448 217.767 156.246 217.423C153.95 213.484 151.629 209.556 149.372 205.596C149.015 204.966 148.771 204.19 148.737 203.472C148.078 188.837 136.543 176.971 121.904 175.869C117.133 175.51 112.577 176.295 108.201 178.184C107.829 178.346 107.471 178.534 107.279 178.629C109.359 180.88 111.618 182.954 113.438 185.357C121.684 196.242 122.114 210.974 114.706 222.451C112.935 225.195 111.2 227.967 109.554 230.786C107.651 234.044 107.071 237.713 106.702 241.382C106.155 246.784 105.767 252.205 105.309 257.617C105.3 257.726 105.263 257.83 105.227 257.997H101.721C101.632 256.415 101.611 254.791 101.437 253.185C100.845 247.709 100.347 242.218 99.5284 236.776C98.8962 232.563 96.6425 228.964 94.2911 225.487C92.0924 222.235 89.9181 218.977 88.7485 215.19C85.0656 203.272 87.2674 192.546 95.3599 183.03C95.65 182.687 95.9799 182.376 96.3677 181.969C97.1953 182.89 97.9709 183.757 98.5725 184.427C96.9265 186.988 94.911 189.482 93.5887 192.296C89.0569 201.933 89.741 211.372 95.3294 220.444C96.1875 221.834 97.1556 223.157 98.0412 224.529C100.548 228.417 102.64 232.484 103.52 237.153C103.59 236.94 103.685 236.73 103.724 236.511C104.57 231.809 106.79 227.714 109.407 223.808C111.634 220.489 113.811 217.174 115.017 213.295C120.254 196.47 109.087 178.668 91.6435 176.113C75.55 173.755 60.9651 184.557 58.5098 200.656C58.4976 200.732 58.4762 200.808 58.4793 200.881C58.6472 203.798 57.383 206.204 55.8927 208.592C53.8864 211.807 52.0419 215.126 49.9897 218.634C51.3823 218.634 52.5732 218.634 53.7642 218.634C54.488 218.634 55.2117 218.622 55.9355 218.634C57.5692 218.664 58.2166 219.309 58.2197 220.94C58.2258 225.883 58.2197 230.826 58.2197 235.769C58.2197 236.073 58.2136 236.378 58.2197 236.682C58.2625 238.285 59.0992 239.149 60.7085 239.158C64.7457 239.179 68.7858 239.164 72.8229 239.167C73.2352 239.167 73.6505 239.167 74.1391 239.167V242.821H69.6959V257.994H66.0374V242.817C64.3273 242.817 62.7699 242.729 61.2246 242.836C57.102 243.122 54.3872 239.885 54.5246 236.213C54.6834 232.037 54.5613 227.848 54.5613 223.665C54.5613 223.254 54.5613 222.841 54.5613 222.284C52.5061 222.284 50.5364 222.284 48.5697 222.284C47.9223 222.284 47.2688 222.318 46.6275 222.254C45.348 222.126 44.6639 220.943 45.1556 219.756C45.2991 219.406 45.5006 219.081 45.69 218.752C48.4689 213.995 51.2632 209.243 54.0177 204.47C54.3444 203.904 54.5582 203.217 54.6254 202.563C56.0546 188.752 63.1668 179.1 76.1302 174.123C85.0809 170.686 93.9979 171.519 102.527 175.933C103.248 176.307 103.773 176.329 104.5 175.939C124.24 165.432 148.63 177.643 151.977 199.685C152.011 199.91 152.112 200.135 152.099 200.357C151.938 202.977 153.208 205.073 154.491 207.202C157.037 211.43 159.502 215.704 162.003 219.96V221.101L162 221.104Z" fill="#10111E"/>
</g>
<g clip-path="url(#clip1_3_82)">
<path d="M373.014 217.019C371.013 217.019 369.07 217.019 367.128 217.019C366.58 217.019 366.032 217.044 365.487 217.004C363.949 216.882 362.975 215.861 363 214.439C363.025 213.077 363.993 212.059 365.487 212.002C367.36 211.933 369.24 211.98 371.116 211.977C371.73 211.977 372.344 211.977 373.011 211.977C373.857 199.832 378.39 189.448 386.91 180.926C395.43 172.405 405.811 167.87 417.984 167.009C417.984 165.39 417.984 163.802 417.984 162.214C417.984 161.431 417.972 160.652 417.987 159.869C418.022 158.074 418.993 156.987 420.525 157C422.057 157.012 422.996 158.096 423.015 159.922C423.034 161.876 423.021 163.83 423.021 165.784C423.021 166.166 423.021 166.549 423.021 167.006C435.135 167.842 445.522 172.367 454.049 180.876C462.578 189.391 467.124 199.77 467.985 211.902C468.53 211.927 469.06 211.968 469.586 211.971C471.5 211.98 473.417 211.943 475.331 211.987C476.969 212.024 477.997 213.033 478 214.489C478 215.945 476.979 216.969 475.343 217.001C472.925 217.048 470.507 217.013 467.995 217.013C467.149 229.139 462.61 239.565 454.055 248.105C445.531 256.617 435.144 261.145 423.021 261.985C423.021 264.431 423.04 266.804 423.015 269.181C422.996 270.763 422.176 271.796 420.885 271.972C419.237 272.194 418.028 271.089 417.994 269.247C417.956 267.293 417.984 265.339 417.984 263.385C417.984 262.959 417.984 262.533 417.984 261.991C405.884 261.142 395.455 256.62 386.913 248.07C378.399 239.549 373.854 229.167 373.017 217.019H373.014ZM423.021 256.911C446.518 255.533 462.441 235.666 462.801 217.019C461.479 217.019 460.157 217.026 458.835 217.019C457.626 217.01 456.404 217.069 455.208 216.944C453.864 216.803 453.04 215.751 453.059 214.451C453.078 213.205 453.898 212.25 455.189 212.052C455.762 211.965 456.357 211.99 456.943 211.987C458.92 211.98 460.899 211.987 462.882 211.987C461.849 190.087 443.364 172.871 423.081 172.164C423.062 172.54 423.028 172.918 423.025 173.301C423.018 175.255 423.043 177.209 423.012 179.163C422.987 180.785 422.104 181.828 420.741 181.941C419.137 182.072 418.016 180.986 417.991 179.179C417.956 176.846 417.981 174.513 417.981 172.176C396.514 172.893 378.634 191.671 378.199 211.99C378.856 211.99 379.514 211.99 380.172 211.99C381.929 211.99 383.69 211.946 385.447 212.015C386.944 212.071 387.912 213.083 387.944 214.442C387.975 215.823 387.048 216.85 385.582 216.997C384.962 217.06 384.332 217.029 383.709 217.029C381.848 217.029 379.987 217.029 378.123 217.029C379.157 238.951 397.654 256.119 417.984 256.855C417.984 256.438 417.984 256.019 417.984 255.599C417.984 253.645 417.95 251.691 417.997 249.736C418.044 247.879 419.406 246.758 421.076 247.115C422.279 247.372 423.006 248.396 423.018 249.953C423.037 252.248 423.025 254.544 423.025 256.924L423.021 256.911Z" fill="black"/>
<path d="M420.472 187.005C435.683 186.983 447.972 199.244 447.994 214.467C448.016 229.675 435.749 241.97 420.531 241.992C405.326 242.014 393.028 229.741 393.009 214.527C392.99 199.313 405.248 187.027 420.472 187.005ZM443.016 214.523C443.029 202.103 432.942 191.994 420.531 191.984C408.111 191.975 398.002 202.056 397.99 214.467C397.977 226.884 408.067 236.997 420.475 237.009C432.892 237.022 443.007 226.931 443.019 214.523H443.016Z" fill="black"/>
<path d="M432.98 214.511C432.974 221.454 427.401 227.003 420.459 226.978C413.518 226.953 407.983 221.366 408.023 214.426C408.064 207.534 413.59 202.031 420.487 202.022C427.429 202.012 432.989 207.568 432.98 214.511ZM420.462 221.999C424.607 222.015 427.999 218.645 428.002 214.505C428.005 210.405 424.682 207.036 420.597 206.995C416.443 206.951 413.026 210.296 412.998 214.426C412.969 218.576 416.324 221.98 420.459 221.996L420.462 221.999Z" fill="black"/>
</g>
<g clip-path="url(#clip2_3_82)">
<path d="M793 215.15C792.479 216.43 791.48 216.853 790.159 216.838C787.382 216.807 784.605 216.83 781.828 216.83C780.89 216.83 780.021 216.656 779.474 215.787C778.541 214.302 779.419 212.303 781.182 212.24C784.423 212.121 787.672 212.185 790.915 212.214C791.978 212.225 792.589 212.941 792.997 213.85V215.15H793Z" fill="black"/>
<path d="M738.149 159C739.431 159.518 739.851 160.517 739.837 161.835C739.805 164.612 739.828 167.39 739.825 170.167C739.825 171.062 739.678 171.902 738.873 172.461C737.404 173.483 735.302 172.617 735.236 170.813C735.114 167.572 735.178 164.323 735.209 161.079C735.221 160.016 735.933 159.403 736.846 159H738.146H738.149Z" fill="black"/>
<path d="M737.532 269.997C735.435 269.997 733.342 269.997 731.245 269.997C727.342 269.997 724.513 267.64 723.841 263.791C723.699 262.977 723.638 262.14 723.632 261.315C723.606 258.607 723.54 255.894 723.641 253.189C723.847 247.579 721.501 243.183 717.296 239.702C713.309 236.401 710.092 232.529 707.989 227.777C700.652 211.2 708.27 191.916 724.959 184.812C744.259 176.596 766.035 188.44 769.353 209.153C771.282 221.203 767.613 231.408 758.089 239.265C753.589 242.978 751.264 247.631 751.368 253.493C751.423 256.563 751.385 259.632 751.376 262.705C751.362 266.936 748.292 269.983 744.042 269.997C741.873 270.006 739.707 269.997 737.538 269.997H737.532ZM746.709 251.463C746.874 250.446 746.975 249.549 747.166 248.671C748.365 243.198 751.394 238.926 755.601 235.289C763.707 228.283 766.718 219.297 764.627 208.895C761.619 193.917 747.789 184.664 732.754 187.187C717.464 189.752 706.875 205.811 710.517 220.858C712.014 227.038 715.127 232.147 720.169 236.091C724.136 239.193 726.82 243.175 727.851 248.164C728.074 249.244 728.167 250.351 728.323 251.463H746.709ZM746.737 256.186H728.399C728.399 258.619 728.312 260.991 728.433 263.354C728.5 264.622 729.311 265.349 730.46 265.361C735.152 265.404 739.843 265.41 744.534 265.361C745.872 265.346 746.668 264.582 746.714 263.273C746.795 260.938 746.737 258.599 746.737 256.189V256.186Z" fill="black"/>
<path d="M688.932 216.827C687.453 216.827 685.97 216.856 684.49 216.818C682.88 216.778 681.974 215.886 682 214.444C682.026 213.056 682.918 212.196 684.487 212.179C687.45 212.147 690.409 212.147 693.372 212.179C694.941 212.196 695.833 213.053 695.862 214.441C695.891 215.883 694.987 216.749 693.375 216.824C693.302 216.827 693.23 216.824 693.157 216.824C691.75 216.824 690.34 216.824 688.932 216.824V216.827Z" fill="black"/>
<path d="M700.093 174.502C700.353 174.635 700.953 174.783 701.338 175.157C703.562 177.311 705.763 179.492 707.917 181.719C708.971 182.808 708.786 184.108 707.567 185.214C706.559 186.127 705.325 186.06 704.332 185.003C702.262 182.796 700.2 180.584 698.147 178.363C697.469 177.63 697.316 176.77 697.738 175.863C698.135 175.012 698.839 174.56 700.098 174.505L700.093 174.502Z" fill="black"/>
<path d="M774.8 254.533C774.056 254.11 773.193 253.809 772.588 253.238C770.616 251.382 768.725 249.439 766.822 247.51C765.765 246.438 765.661 245.323 766.466 244.321C767.312 243.264 768.725 243.053 769.709 244C772.003 246.201 774.238 248.463 776.459 250.733C777.125 251.414 777.172 252.28 776.795 253.154C776.448 253.962 775.903 254.451 774.933 254.226C774.89 254.327 774.847 254.428 774.803 254.53L774.8 254.533Z" fill="black"/>
<path d="M777.024 177.627C776.871 177.899 776.674 178.507 776.274 178.919C774.267 180.995 772.22 183.034 770.158 185.058C769.304 185.898 768.236 186.019 767.138 185.634C765.919 185.203 765.496 183.404 766.489 182.359C768.728 180.005 771.047 177.728 773.378 175.464C774.03 174.832 774.893 174.824 775.709 175.217C776.564 175.632 776.998 176.341 777.027 177.627H777.024Z" fill="black"/>
<path d="M699.896 254.417C698.903 254.266 698.092 254.052 697.707 253.099C697.316 252.129 697.507 251.263 698.245 250.525C700.382 248.384 702.508 246.227 704.674 244.116C705.661 243.151 706.935 243.186 707.862 244.09C708.78 244.985 708.858 246.308 707.917 247.278C705.812 249.45 703.672 251.593 701.491 253.69C701.095 254.072 700.434 254.182 699.896 254.42V254.417Z" fill="black"/>
<path d="M758.3 213.812C758.341 215.906 757.376 217.006 755.691 216.786C754.484 216.627 753.878 215.886 753.699 214.603C753.45 212.825 753.319 210.986 752.752 209.306C750.566 202.842 744.8 198.689 737.749 198.301C735.812 198.194 734.859 197.065 735.282 195.373C735.563 194.241 736.342 193.653 737.72 193.703C745.857 193.992 751.961 197.667 755.917 204.797C757.455 207.568 758.242 210.829 758.3 213.815V213.812Z" fill="black"/>
</g>
<g clip-path="url(#clip3_3_82)">
<path d="M1105 173.534V243.218C1104.87 243.621 1104.74 244.024 1104.62 244.428C1103.95 246.654 1102.69 248.618 1100.54 249.349C1098.37 250.089 1098 251.365 1098.28 253.269C1098.29 253.366 1098.28 253.467 1098.28 253.566C1098.23 259.555 1093.82 263.992 1087.84 263.994C1063.38 264.006 1038.93 264.002 1014.47 263.986C1013.56 263.986 1012.62 263.891 1011.74 263.677C1007.1 262.554 1004.02 258.492 1004.01 253.505C1004.01 236.843 1004.01 220.181 1004.01 203.521C1004.01 195.504 1003.98 187.486 1004.02 179.468C1004.06 173.833 1008.73 169.293 1014.28 169.39C1019.55 169.481 1023.92 173.736 1024.16 179.032C1024.22 180.276 1024.17 181.523 1024.17 182.829H1057.86C1057.86 182.454 1057.86 182.132 1057.86 181.809C1057.86 179.466 1057.84 177.124 1057.87 174.781C1057.92 169.676 1061.5 166.034 1066.57 166.02C1076.5 165.99 1086.43 165.998 1096.36 166.02C1099.22 166.026 1101.68 167.085 1103.29 169.495C1104.09 170.687 1104.44 172.179 1105 173.536V173.534ZM1057.79 191.352V186.367H1024.2V187.742C1024.2 207.175 1024.2 226.61 1024.19 246.043C1024.19 246.503 1024.2 246.973 1024.12 247.423C1023.98 248.241 1023.44 248.695 1022.63 248.75C1021.82 248.806 1021.23 248.405 1020.97 247.626C1020.85 247.255 1020.9 246.828 1020.76 246.463C1020.35 245.303 1020.09 244.016 1019.4 243.04C1017.69 240.626 1014.72 239.805 1011.94 240.731C1009.25 241.625 1007.45 244.113 1007.38 247.144C1007.33 249.353 1007.35 251.565 1007.38 253.775C1007.39 254.396 1007.48 255.032 1007.64 255.629C1008.51 258.781 1011.13 260.626 1014.71 260.628C1033.71 260.632 1052.71 260.628 1071.71 260.628C1077.07 260.628 1082.43 260.642 1087.79 260.622C1091.24 260.61 1093.93 258.682 1094.63 255.498C1094.98 253.922 1094.9 252.247 1095.02 250.494H1093.65C1084.78 250.494 1075.9 250.488 1067.02 250.496C1064 250.498 1061.42 249.544 1059.55 247.041C1058.34 245.418 1057.87 243.565 1057.86 241.572C1057.86 239.505 1057.86 237.436 1057.86 235.288H1056.59C1048.3 235.288 1040.02 235.288 1031.74 235.288C1030.13 235.288 1029.31 234.735 1029.27 233.636C1029.24 232.495 1030.06 231.916 1031.74 231.916C1040.06 231.916 1048.38 231.916 1056.69 231.916H1057.78V226.814C1055.86 226.814 1054.02 226.814 1052.18 226.814C1050.7 226.814 1049.22 226.836 1047.75 226.792C1046.81 226.765 1046.18 226.112 1046.12 225.249C1046.06 224.394 1046.62 223.686 1047.53 223.504C1047.85 223.44 1048.19 223.444 1048.51 223.444C1051.28 223.44 1054.04 223.442 1056.8 223.442C1057.14 223.442 1057.49 223.442 1057.8 223.442V218.392H1056.57C1049.47 218.392 1042.36 218.392 1035.26 218.392C1031.2 218.392 1029.26 216.456 1029.26 212.408C1029.26 207.326 1029.26 202.246 1029.26 197.164C1029.26 193.397 1031.29 191.36 1035.05 191.358C1042.25 191.358 1049.45 191.358 1056.65 191.358H1057.79V191.352ZM1101.61 182.979H1061.29V228.451H1101.61V182.977V182.979ZM1020.83 239.477V238.259C1020.83 218.965 1020.83 199.671 1020.83 180.377C1020.83 179.915 1020.81 179.453 1020.78 178.992C1020.5 174.759 1016.29 171.848 1012.24 173.066C1009.14 174 1007.37 176.551 1007.37 180.137C1007.37 199.562 1007.37 218.989 1007.37 238.414C1007.37 238.727 1007.37 239.041 1007.37 239.489C1011.87 236.181 1016.26 236.149 1020.83 239.475L1020.83 239.477ZM1061.23 231.944C1061.23 235.222 1061.21 238.416 1061.23 241.608C1061.25 244.912 1063.26 247.074 1066.53 247.09C1076.46 247.138 1086.39 247.134 1096.32 247.09C1099.6 247.076 1101.62 244.926 1101.64 241.631C1101.65 238.662 1101.64 235.693 1101.64 232.723C1101.64 232.471 1101.59 232.219 1101.57 231.94H1061.23V231.944ZM1101.64 179.445C1101.64 177.963 1101.64 176.553 1101.64 175.14C1101.64 171.417 1099.62 169.384 1095.92 169.382C1089.02 169.378 1082.12 169.382 1075.22 169.382C1072.29 169.382 1069.37 169.356 1066.45 169.392C1063.7 169.426 1061.61 171.141 1061.34 173.782C1061.15 175.632 1061.3 177.517 1061.3 179.447H1101.64V179.445ZM1055.13 204.862C1047.57 201.738 1040.23 198.705 1032.89 195.67C1032.46 196.779 1032.52 213.26 1032.95 214.036C1040.26 211.011 1047.58 207.984 1055.13 204.862ZM1040 194.752C1039.98 194.809 1039.96 194.867 1039.94 194.922C1045.87 197.378 1051.81 199.834 1057.79 202.307V194.752H1040ZM1057.83 207.403C1051.86 209.875 1045.96 212.314 1040.07 214.754C1040.1 214.808 1040.12 214.859 1040.14 214.913H1057.83V207.405V207.403Z" fill="black"/>
<path d="M1035.14 226.808C1033.82 226.808 1032.51 226.822 1031.2 226.804C1030.02 226.786 1029.28 226.128 1029.27 225.146C1029.27 224.176 1030.02 223.458 1031.18 223.446C1033.84 223.418 1036.49 223.416 1039.15 223.446C1040.31 223.46 1041.06 224.2 1041.03 225.172C1041 226.154 1040.26 226.786 1039.07 226.802C1037.76 226.82 1036.45 226.806 1035.14 226.806L1035.14 226.808Z" fill="black"/>
<path d="M1081.38 208.228C1077.11 208.228 1072.84 208.232 1068.57 208.228C1065.88 208.224 1064.59 206.927 1064.59 204.215C1064.58 199.566 1064.58 194.916 1064.59 190.267C1064.59 187.672 1065.94 186.282 1068.52 186.278C1077.13 186.262 1085.74 186.262 1094.35 186.278C1096.94 186.282 1098.27 187.662 1098.28 190.271C1098.28 194.954 1098.28 199.637 1098.28 204.318C1098.27 206.901 1096.96 208.222 1094.4 208.228C1090.06 208.238 1085.72 208.23 1081.38 208.23L1081.38 208.228ZM1078.21 197.261C1074.73 195.133 1071.42 193.109 1068 191.023V203.513C1071.43 201.415 1074.74 199.387 1078.21 197.263V197.261ZM1084.66 197.263C1088.15 199.395 1091.45 201.42 1094.84 203.493V191.033C1091.42 193.125 1088.13 195.141 1084.66 197.263ZM1072.7 189.71C1072.68 189.769 1072.66 189.829 1072.64 189.888C1075.44 191.604 1078.22 193.333 1081.04 195.012C1081.28 195.152 1081.78 195.041 1082.06 194.875C1084.29 193.546 1086.5 192.175 1088.71 190.818C1089.22 190.503 1089.73 190.188 1090.25 189.872C1090.22 189.819 1090.2 189.763 1090.17 189.71H1072.7H1072.7ZM1072.43 204.759H1090.43C1087.42 202.914 1084.63 201.192 1081.83 199.502C1081.63 199.385 1081.24 199.381 1081.05 199.498C1078.24 201.19 1075.44 202.912 1072.43 204.759H1072.43Z" fill="black"/>
<path d="M1082.34 218.384C1086.64 218.384 1090.95 218.384 1095.25 218.384C1095.48 218.384 1095.72 218.384 1095.94 218.384C1097.46 218.4 1098.27 218.993 1098.26 220.078C1098.25 221.163 1097.43 221.764 1095.92 221.766C1086.82 221.77 1077.72 221.77 1068.61 221.764C1068.26 221.764 1067.88 221.74 1067.54 221.649C1066.7 221.423 1066.29 220.822 1066.34 219.961C1066.38 219.14 1066.84 218.614 1067.66 218.463C1068.04 218.392 1068.44 218.388 1068.83 218.388C1073.34 218.384 1077.84 218.384 1082.34 218.384H1082.34Z" fill="black"/>
<path d="M1089 214.996C1086.77 214.996 1084.54 214.998 1082.3 214.994C1081.94 214.994 1081.57 214.99 1081.22 214.937C1080.36 214.804 1079.74 214.137 1079.78 213.332C1079.81 212.489 1080.22 211.888 1081.09 211.717C1081.48 211.642 1081.87 211.618 1082.26 211.618C1086.77 211.612 1091.27 211.612 1095.77 211.614C1097.43 211.614 1098.28 212.209 1098.26 213.344C1098.23 214.449 1097.43 214.994 1095.81 214.996C1093.54 215 1091.27 214.996 1089.01 214.996H1089Z" fill="black"/>
<path d="M1071.36 214.992C1070.32 214.992 1069.27 215.018 1068.22 214.986C1067 214.948 1066.32 214.322 1066.32 213.312C1066.32 212.312 1067.01 211.648 1068.22 211.626C1070.31 211.588 1072.41 211.586 1074.51 211.63C1075.67 211.654 1076.41 212.396 1076.37 213.362C1076.34 214.308 1075.64 214.917 1074.51 214.992C1074.44 214.996 1074.37 214.996 1074.31 214.996C1073.33 214.996 1072.35 214.996 1071.36 214.994V214.992Z" fill="black"/>
<path d="M1086.47 238.686C1086.47 239.146 1086.48 239.608 1086.47 240.068C1086.44 242.26 1085.21 243.607 1083.05 243.702C1081.81 243.756 1080.55 243.752 1079.32 243.639C1077.69 243.49 1076.49 242.183 1076.42 240.54C1076.36 239.293 1076.37 238.037 1076.42 236.787C1076.48 235.181 1077.6 233.85 1079.19 233.687C1080.62 233.542 1082.08 233.532 1083.51 233.657C1085.3 233.814 1086.42 235.177 1086.47 237.006C1086.49 237.565 1086.47 238.124 1086.47 238.684L1086.47 238.686ZM1079.83 236.998V240.281H1083.05V236.998H1079.83Z" fill="black"/>
<path d="M1081.41 176.124C1080.33 176.124 1079.25 176.148 1078.17 176.118C1077.13 176.088 1076.43 175.424 1076.41 174.504C1076.38 173.605 1077.06 172.81 1078.07 172.786C1080.33 172.732 1082.59 172.728 1084.85 172.792C1085.86 172.82 1086.51 173.641 1086.45 174.557C1086.4 175.448 1085.74 176.084 1084.75 176.116C1083.63 176.15 1082.52 176.124 1081.41 176.126L1081.41 176.124Z" fill="black"/>
</g>
<g clip-path="url(#clip4_3_82)">
<path d="M1342 169.871C1342.07 169.736 1342.16 169.607 1342.2 169.463C1343.16 165.803 1345.83 163.726 1349.66 163.724C1364.23 163.715 1378.8 163.712 1393.36 163.736C1394.35 163.736 1395.13 163.526 1395.94 162.905C1400.77 159.235 1407.23 159.042 1412.42 162.321C1417.32 165.426 1419.88 171.42 1418.72 177.067C1417.51 182.907 1412.68 187.481 1406.73 188.362C1405.77 188.503 1404.78 188.479 1403.67 188.541V190.068C1403.67 213.435 1403.63 236.801 1403.72 260.165C1403.74 264.184 1402.49 267.616 1397.52 268.998H1348.14C1346.53 268.463 1344.88 267.915 1343.87 266.472C1343.11 265.375 1342.62 264.092 1342 262.891C1342 231.886 1342 200.878 1342 169.871ZM1391.83 167.479C1390.24 167.479 1388.82 167.545 1387.42 167.458C1386.4 167.394 1386 167.728 1385.77 168.731C1385 172.081 1383.18 173.465 1379.75 173.47C1375.26 173.477 1370.77 173.475 1366.28 173.47C1362.44 173.47 1360.8 172.222 1359.87 168.475C1359.67 167.662 1359.33 167.444 1358.52 167.458C1355.72 167.509 1352.93 167.476 1350.13 167.479C1347.05 167.479 1345.8 168.748 1345.8 171.85C1345.8 201.523 1345.8 231.196 1345.8 260.869C1345.8 263.936 1347.1 265.241 1350.15 265.241C1365.27 265.241 1380.39 265.241 1395.51 265.241C1398.61 265.241 1399.89 263.974 1399.89 260.916C1399.89 237.232 1399.89 213.55 1399.89 189.866V188.484C1397.84 189.259 1396 190.042 1394.09 190.622C1393.49 190.805 1392.51 190.662 1392.07 190.264C1391.64 189.871 1391.46 188.941 1391.55 188.3C1391.73 186.992 1392.11 185.704 1392.51 184.437C1392.87 183.324 1392.88 182.361 1392.1 181.384C1391.65 180.819 1391.38 180.082 1391.12 179.39C1389.63 175.41 1389.86 171.5 1391.83 167.481L1391.83 167.479ZM1395.85 185.775C1395.99 185.793 1396.13 185.812 1396.26 185.831C1397.22 185.466 1398.14 184.986 1399.12 184.767C1400.16 184.536 1401.3 184.31 1402.32 184.508C1409.71 185.965 1416.15 180.04 1415.02 172.674C1414.37 168.406 1411.93 165.499 1407.75 164.322C1403.44 163.107 1399.46 163.971 1396.49 167.427C1393.64 170.732 1392.98 174.678 1394.97 178.585C1396.17 180.944 1397.63 183.013 1395.85 185.772L1395.85 185.775ZM1363.59 167.524C1363.87 169.341 1364.27 169.708 1365.93 169.71C1370.57 169.72 1375.21 169.72 1379.85 169.71C1381.48 169.706 1381.99 169.188 1382.06 167.524H1363.58H1363.59Z" fill="black"/>
<path d="M1379.3 227.18C1382.64 227.18 1385.99 227.175 1389.33 227.18C1390.79 227.182 1391.57 227.802 1391.61 228.972C1391.65 230.182 1390.82 230.928 1389.35 230.93C1382.59 230.94 1375.83 230.942 1369.07 230.93C1367.65 230.928 1366.84 230.215 1366.84 229.054C1366.83 227.879 1367.63 227.185 1369.04 227.18C1372.46 227.171 1375.88 227.178 1379.31 227.178L1379.3 227.18Z" fill="black"/>
<path d="M1379.25 201.775C1382.59 201.775 1385.93 201.768 1389.27 201.777C1390.8 201.782 1391.61 202.434 1391.61 203.632C1391.61 204.84 1390.8 205.525 1389.28 205.527C1382.56 205.535 1375.84 205.537 1369.12 205.527C1367.65 205.527 1366.8 204.777 1366.83 203.59C1366.87 202.434 1367.66 201.787 1369.11 201.78C1372.49 201.768 1375.87 201.775 1379.25 201.775Z" fill="black"/>
<path d="M1379.14 214.002C1375.76 214.002 1372.38 214.021 1369 213.993C1367.3 213.979 1366.38 212.644 1367.05 211.262C1367.47 210.382 1368.24 210.238 1369.11 210.238C1373.36 210.25 1377.61 210.243 1381.85 210.243C1384.37 210.243 1386.88 210.233 1389.4 210.247C1390.82 210.254 1391.61 210.935 1391.61 212.105C1391.61 213.279 1390.82 213.986 1389.4 213.993C1385.98 214.009 1382.56 213.997 1379.14 213.997V214.002Z" fill="black"/>
<path d="M1379.33 218.713C1382.67 218.713 1386.01 218.706 1389.36 218.715C1390.8 218.72 1391.58 219.365 1391.61 220.532C1391.63 221.747 1390.82 222.463 1389.32 222.465C1382.6 222.474 1375.88 222.474 1369.16 222.465C1367.66 222.465 1366.83 221.754 1366.84 220.558C1366.85 219.36 1367.66 218.715 1369.19 218.713C1372.57 218.706 1375.95 218.713 1379.33 218.713Z" fill="black"/>
<path d="M1372.77 260.836C1370.09 260.836 1367.42 260.843 1364.74 260.834C1363.2 260.827 1362.43 260.177 1362.45 258.946C1362.47 257.778 1363.24 257.093 1364.69 257.088C1370.16 257.072 1375.63 257.065 1381.1 257.093C1382.79 257.103 1383.68 258.306 1383.14 259.697C1382.78 260.605 1382.05 260.843 1381.15 260.841C1378.36 260.831 1375.56 260.836 1372.77 260.838V260.836Z" fill="black"/>
<path d="M1357.72 210.262C1358.27 210.262 1358.83 210.238 1359.38 210.266C1360.49 210.323 1361.16 210.963 1361.22 211.996C1361.28 213.082 1360.63 213.908 1359.5 213.979C1358.29 214.054 1357.07 214.054 1355.85 213.979C1354.77 213.91 1354.02 212.995 1354.08 212.008C1354.14 211.034 1354.89 210.327 1355.96 210.269C1356.54 210.238 1357.14 210.264 1357.72 210.264V210.262Z" fill="black"/>
<path d="M1357.75 201.796C1358.3 201.796 1358.86 201.77 1359.4 201.801C1360.52 201.865 1361.18 202.519 1361.22 203.557C1361.26 204.595 1360.65 205.417 1359.59 205.495C1358.34 205.586 1357.07 205.582 1355.82 205.504C1354.78 205.44 1354.06 204.576 1354.07 203.623C1354.09 202.606 1354.86 201.855 1355.99 201.796C1356.57 201.766 1357.16 201.792 1357.75 201.792V201.796Z" fill="black"/>
<path d="M1357.71 222.456C1357.08 222.456 1356.44 222.505 1355.82 222.444C1354.79 222.343 1354.06 221.519 1354.07 220.563C1354.09 219.591 1354.82 218.788 1355.86 218.738C1357.08 218.682 1358.3 218.682 1359.52 218.738C1360.58 218.79 1361.15 219.442 1361.22 220.485C1361.28 221.521 1360.64 222.317 1359.59 222.432C1358.97 222.5 1358.34 222.444 1357.71 222.444C1357.71 222.444 1357.71 222.448 1357.71 222.451V222.456Z" fill="black"/>
<path d="M1357.78 227.187C1358.33 227.187 1358.88 227.157 1359.43 227.194C1360.52 227.267 1361.19 227.952 1361.22 228.983C1361.26 230.066 1360.58 230.86 1359.45 230.916C1358.27 230.975 1357.09 230.973 1355.91 230.916C1354.81 230.862 1354.05 230.012 1354.08 229.005C1354.11 227.995 1354.89 227.246 1356.01 227.19C1356.6 227.159 1357.19 227.185 1357.78 227.187Z" fill="black"/>
<path d="M1402.28 174.647C1404.35 173.07 1406.31 171.563 1408.28 170.078C1409.46 169.186 1410.41 169.228 1411.17 170.167C1411.95 171.144 1411.76 172.13 1410.55 173.065C1408.16 174.908 1405.76 176.744 1403.35 178.564C1402.05 179.548 1401.14 179.409 1400.14 178.11C1399.38 177.114 1398.63 176.118 1397.9 175.099C1397.15 174.058 1397.27 172.95 1398.15 172.302C1399.04 171.655 1400.1 171.869 1400.93 172.884C1401.37 173.428 1401.78 173.993 1402.28 174.649V174.647Z" fill="black"/>
</g>
<path d="M24.8031 373V352.636H38.5247V356.186H29.1085V361.038H37.8187V364.588H29.1085V369.45H38.5645V373H24.8031Z" fill="#C0C0C0"/>
<path d="M41.9476 352.636H47.2573L52.8652 366.318H53.1039L58.7118 352.636H64.0215V373H59.8454V359.746H59.6763L54.4064 372.901H51.5627L46.2928 359.696H46.1238V373H41.9476V352.636Z" fill="#C0C0C0"/>
<path d="M67.5687 373V352.636H75.6028C77.1473 352.636 78.4631 352.931 79.5503 353.521C80.6374 354.105 81.466 354.917 82.0361 355.957C82.6128 356.991 82.9011 358.185 82.9011 359.537C82.9011 360.889 82.6094 362.082 82.0261 363.116C81.4428 364.151 80.5976 364.956 79.4906 365.533C78.3902 366.109 77.0578 366.398 75.4934 366.398H70.3727V362.947H74.7974C75.626 362.947 76.3088 362.805 76.8457 362.52C77.3893 362.228 77.7936 361.827 78.0588 361.317C78.3306 360.8 78.4665 360.206 78.4665 359.537C78.4665 358.861 78.3306 358.271 78.0588 357.767C77.7936 357.257 77.3893 356.862 76.8457 356.584C76.3022 356.299 75.6128 356.156 74.7775 356.156H71.8741V373H67.5687Z" fill="#C0C0C0"/>
<path d="M86.856 373H82.2424L89.2722 352.636H94.8205L101.84 373H97.2267L92.1259 357.29H91.9668L86.856 373ZM86.5677 364.996H97.4654V368.356H86.5677V364.996Z" fill="#C0C0C0"/>
<path d="M101.028 356.186V352.636H117.752V356.186H111.518V373H107.262V356.186H101.028Z" fill="#C0C0C0"/>
<path d="M120.506 373V352.636H124.812V361.038H133.552V352.636H137.847V373H133.552V364.588H124.812V373H120.506Z" fill="#C0C0C0"/>
<path d="M145.702 352.636V373H141.397V352.636H145.702Z" fill="#C0C0C0"/>
<path d="M160.291 358.493C160.212 357.691 159.87 357.068 159.267 356.624C158.664 356.179 157.845 355.957 156.811 355.957C156.109 355.957 155.515 356.057 155.031 356.256C154.548 356.448 154.176 356.716 153.918 357.061C153.666 357.406 153.54 357.797 153.54 358.234C153.527 358.599 153.603 358.917 153.769 359.189C153.941 359.461 154.176 359.696 154.475 359.895C154.773 360.087 155.118 360.256 155.509 360.402C155.9 360.541 156.317 360.66 156.762 360.76L158.591 361.197C159.479 361.396 160.295 361.661 161.037 361.993C161.78 362.324 162.423 362.732 162.966 363.216C163.51 363.7 163.931 364.27 164.229 364.926C164.534 365.582 164.69 366.335 164.696 367.183C164.69 368.429 164.371 369.51 163.742 370.425C163.119 371.333 162.217 372.039 161.037 372.543C159.864 373.04 158.449 373.288 156.791 373.288C155.147 373.288 153.716 373.036 152.496 372.533C151.283 372.029 150.335 371.283 149.652 370.295C148.976 369.301 148.621 368.071 148.588 366.606H152.754C152.801 367.289 152.996 367.859 153.341 368.317C153.692 368.767 154.16 369.109 154.743 369.341C155.333 369.566 155.999 369.679 156.742 369.679C157.471 369.679 158.104 369.573 158.641 369.361C159.184 369.149 159.605 368.854 159.904 368.476C160.202 368.098 160.351 367.664 160.351 367.173C160.351 366.716 160.215 366.331 159.943 366.02C159.678 365.708 159.287 365.443 158.77 365.224C158.26 365.006 157.633 364.807 156.891 364.628L154.673 364.071C152.957 363.653 151.601 363 150.607 362.112C149.612 361.224 149.119 360.027 149.125 358.523C149.119 357.29 149.447 356.213 150.11 355.291C150.779 354.37 151.697 353.651 152.864 353.133C154.03 352.616 155.356 352.358 156.841 352.358C158.352 352.358 159.672 352.616 160.798 353.133C161.932 353.651 162.814 354.37 163.443 355.291C164.073 356.213 164.398 357.28 164.418 358.493H160.291Z" fill="#C0C0C0"/>
<path d="M167.592 373V352.636H181.314V356.186H171.898V361.038H180.608V364.588H171.898V369.45H181.354V373H167.592Z" fill="#C0C0C0"/>
<path d="M380.25 373H373.032V352.636H380.31C382.358 352.636 384.122 353.044 385.6 353.859C387.078 354.668 388.215 355.831 389.01 357.349C389.812 358.867 390.213 360.684 390.213 362.798C390.213 364.919 389.812 366.742 389.01 368.267C388.215 369.792 387.071 370.962 385.58 371.777C384.095 372.592 382.319 373 380.25 373ZM377.337 369.311H380.071C381.344 369.311 382.415 369.086 383.283 368.635C384.158 368.178 384.814 367.472 385.252 366.517C385.696 365.556 385.918 364.316 385.918 362.798C385.918 361.294 385.696 360.064 385.252 359.109C384.814 358.155 384.161 357.452 383.293 357.001C382.425 356.551 381.354 356.325 380.081 356.325H377.337V369.311Z" fill="#C0C0C0"/>
<path d="M393.403 373V352.636H407.124V356.186H397.708V361.038H406.418V364.588H397.708V369.45H407.164V373H393.403Z" fill="#C0C0C0"/>
<path d="M410.547 373V352.636H424.03V356.186H414.853V361.038H423.135V364.588H414.853V373H410.547Z" fill="#C0C0C0"/>
<path d="M431.232 352.636V373H426.926V352.636H431.232Z" fill="#C0C0C0"/>
<path d="M451.806 352.636V373H448.088L439.228 360.183H439.079V373H434.774V352.636H438.552L447.342 365.443H447.521V352.636H451.806Z" fill="#C0C0C0"/>
<path d="M455.364 373V352.636H469.085V356.186H459.669V361.038H468.379V364.588H459.669V369.45H469.125V373H455.364Z" fill="#C0C0C0"/>
<path d="M695.241 352.636V373H690.936V352.636H695.241Z" fill="#C0C0C0"/>
<path d="M706.002 373H698.784V352.636H706.062C708.11 352.636 709.874 353.044 711.352 353.859C712.83 354.668 713.967 355.831 714.762 357.349C715.564 358.867 715.965 360.684 715.965 362.798C715.965 364.919 715.564 366.742 714.762 368.267C713.967 369.792 712.823 370.962 711.332 371.777C709.847 372.592 708.071 373 706.002 373ZM703.089 369.311H705.823C707.096 369.311 708.167 369.086 709.035 368.635C709.91 368.178 710.566 367.472 711.004 366.517C711.448 365.556 711.67 364.316 711.67 362.798C711.67 361.294 711.448 360.064 711.004 359.109C710.566 358.155 709.913 357.452 709.045 357.001C708.177 356.551 707.106 356.325 705.833 356.325H703.089V369.311Z" fill="#C0C0C0"/>
<path d="M719.155 373V352.636H732.876V356.186H723.46V361.038H732.17V364.588H723.46V369.45H732.916V373H719.155Z" fill="#C0C0C0"/>
<path d="M739.809 373H735.196L742.225 352.636H747.774L754.794 373H750.18L745.079 357.29H744.92L739.809 373ZM739.521 364.996H750.419V368.357H739.521V364.996Z" fill="#C0C0C0"/>
<path d="M753.981 356.186V352.636H770.705V356.186H764.471V373H760.215V356.186H753.981Z" fill="#C0C0C0"/>
<path d="M773.459 373V352.636H787.181V356.186H777.765V361.038H786.475V364.588H777.765V369.45H787.221V373H773.459Z" fill="#C0C0C0"/>
<path d="M974.026 373V352.636H982.06C983.604 352.636 984.92 352.931 986.007 353.521C987.094 354.105 987.923 354.917 988.493 355.957C989.07 356.991 989.358 358.185 989.358 359.537C989.358 360.889 989.066 362.082 988.483 363.116C987.9 364.151 987.055 364.956 985.948 365.533C984.847 366.109 983.515 366.398 981.95 366.398H976.83V362.947H981.254C982.083 362.947 982.766 362.805 983.303 362.52C983.846 362.228 984.251 361.827 984.516 361.317C984.788 360.8 984.923 360.206 984.923 359.537C984.923 358.861 984.788 358.271 984.516 357.767C984.251 357.257 983.846 356.862 983.303 356.584C982.759 356.299 982.07 356.156 981.235 356.156H978.331V373H974.026Z" fill="#C0C0C0"/>
<path d="M992.155 373V352.636H1000.19C1001.73 352.636 1003.04 352.911 1004.13 353.462C1005.22 354.005 1006.05 354.777 1006.62 355.778C1007.2 356.773 1007.49 357.943 1007.49 359.288C1007.49 360.641 1007.2 361.804 1006.61 362.778C1006.03 363.746 1005.18 364.489 1004.08 365.006C1002.98 365.523 1001.64 365.781 1000.08 365.781H994.7V362.321H999.383C1000.21 362.321 1000.89 362.208 1001.43 361.983C1001.98 361.758 1002.38 361.419 1002.64 360.969C1002.92 360.518 1003.05 359.958 1003.05 359.288C1003.05 358.612 1002.92 358.042 1002.64 357.578C1002.38 357.114 1001.97 356.763 1001.42 356.524C1000.88 356.279 1000.19 356.156 999.363 356.156H996.46V373H992.155ZM1003.15 363.733L1008.21 373H1003.46L998.508 363.733H1003.15Z" fill="#C0C0C0"/>
<path d="M1029.24 362.818C1029.24 365.039 1028.82 366.928 1027.98 368.486C1027.14 370.044 1026 371.233 1024.56 372.055C1023.12 372.871 1021.5 373.278 1019.71 373.278C1017.9 373.278 1016.27 372.867 1014.84 372.045C1013.4 371.223 1012.26 370.034 1011.42 368.476C1010.59 366.918 1010.17 365.032 1010.17 362.818C1010.17 360.597 1010.59 358.708 1011.42 357.151C1012.26 355.593 1013.4 354.406 1014.84 353.591C1016.27 352.769 1017.9 352.358 1019.71 352.358C1021.5 352.358 1023.12 352.769 1024.56 353.591C1026 354.406 1027.14 355.593 1027.98 357.151C1028.82 358.708 1029.24 360.597 1029.24 362.818ZM1024.88 362.818C1024.88 361.38 1024.66 360.167 1024.23 359.179C1023.81 358.191 1023.21 357.442 1022.43 356.932C1021.66 356.421 1020.75 356.166 1019.71 356.166C1018.67 356.166 1017.76 356.421 1016.98 356.932C1016.21 357.442 1015.6 358.191 1015.17 359.179C1014.75 360.167 1014.54 361.38 1014.54 362.818C1014.54 364.257 1014.75 365.47 1015.17 366.457C1015.6 367.445 1016.21 368.194 1016.98 368.705C1017.76 369.215 1018.67 369.47 1019.71 369.47C1020.75 369.47 1021.66 369.215 1022.43 368.705C1023.21 368.194 1023.81 367.445 1024.23 366.457C1024.66 365.47 1024.88 364.257 1024.88 362.818Z" fill="#C0C0C0"/>
<path d="M1030.73 356.186V352.636H1047.45V356.186H1041.22V373H1036.96V356.186H1030.73Z" fill="#C0C0C0"/>
<path d="M1067.99 362.818C1067.99 365.039 1067.57 366.928 1066.73 368.486C1065.89 370.044 1064.75 371.233 1063.31 372.055C1061.87 372.871 1060.25 373.278 1058.45 373.278C1056.64 373.278 1055.02 372.867 1053.58 372.045C1052.14 371.223 1051.01 370.034 1050.17 368.476C1049.34 366.918 1048.92 365.032 1048.92 362.818C1048.92 360.597 1049.34 358.708 1050.17 357.151C1051.01 355.593 1052.14 354.406 1053.58 353.591C1055.02 352.769 1056.64 352.358 1058.45 352.358C1060.25 352.358 1061.87 352.769 1063.31 353.591C1064.75 354.406 1065.89 355.593 1066.73 357.151C1067.57 358.708 1067.99 360.597 1067.99 362.818ZM1063.62 362.818C1063.62 361.38 1063.41 360.167 1062.98 359.179C1062.55 358.191 1061.95 357.442 1061.18 356.932C1060.4 356.421 1059.49 356.166 1058.45 356.166C1057.41 356.166 1056.5 356.421 1055.73 356.932C1054.95 357.442 1054.35 358.191 1053.92 359.179C1053.49 360.167 1053.28 361.38 1053.28 362.818C1053.28 364.257 1053.49 365.47 1053.92 366.457C1054.35 367.445 1054.95 368.194 1055.73 368.705C1056.5 369.215 1057.41 369.47 1058.45 369.47C1059.49 369.47 1060.4 369.215 1061.18 368.705C1061.95 368.194 1062.55 367.445 1062.98 366.457C1063.41 365.47 1063.62 364.257 1063.62 362.818Z" fill="#C0C0C0"/>
<path d="M1069.47 356.186V352.636H1086.2V356.186H1079.96V373H1075.71V356.186H1069.47Z" fill="#C0C0C0"/>
<path d="M1087.76 352.636H1092.58L1097.22 361.406H1097.42L1102.07 352.636H1106.89L1099.46 365.801V373H1095.19V365.801L1087.76 352.636Z" fill="#C0C0C0"/>
<path d="M1109.24 373V352.636H1117.27C1118.82 352.636 1120.14 352.931 1121.22 353.521C1122.31 354.105 1123.14 354.917 1123.71 355.957C1124.28 356.991 1124.57 358.185 1124.57 359.537C1124.57 360.889 1124.28 362.082 1123.7 363.116C1123.11 364.151 1122.27 364.956 1121.16 365.533C1120.06 366.109 1118.73 366.398 1117.17 366.398H1112.04V362.947H1116.47C1117.3 362.947 1117.98 362.805 1118.52 362.52C1119.06 362.228 1119.47 361.827 1119.73 361.317C1120 360.8 1120.14 360.206 1120.14 359.537C1120.14 358.861 1120 358.271 1119.73 357.767C1119.47 357.257 1119.06 356.862 1118.52 356.584C1117.97 356.299 1117.28 356.156 1116.45 356.156H1113.55V373H1109.24Z" fill="#C0C0C0"/>
<path d="M1127.37 373V352.636H1141.09V356.186H1131.67V361.038H1140.39V364.588H1131.67V369.45H1141.13V373H1127.37Z" fill="#C0C0C0"/>
<path d="M1340.05 356.186V352.636H1356.77V356.186H1350.54V373H1346.28V356.186H1340.05Z" fill="#C0C0C0"/>
<path d="M1359.52 373V352.636H1373.25V356.186H1363.83V361.038H1372.54V364.588H1363.83V369.45H1373.29V373H1359.52Z" fill="#C0C0C0"/>
<path d="M1387.72 358.493C1387.64 357.691 1387.29 357.068 1386.69 356.624C1386.09 356.179 1385.27 355.957 1384.24 355.957C1383.53 355.957 1382.94 356.057 1382.46 356.256C1381.97 356.448 1381.6 356.716 1381.34 357.061C1381.09 357.406 1380.96 357.797 1380.96 358.234C1380.95 358.599 1381.03 358.917 1381.19 359.189C1381.36 359.461 1381.6 359.696 1381.9 359.895C1382.2 360.087 1382.54 360.256 1382.93 360.402C1383.32 360.541 1383.74 360.66 1384.19 360.76L1386.01 361.197C1386.9 361.396 1387.72 361.661 1388.46 361.993C1389.2 362.324 1389.85 362.732 1390.39 363.216C1390.93 363.7 1391.35 364.27 1391.65 364.926C1391.96 365.582 1392.11 366.335 1392.12 367.183C1392.11 368.429 1391.8 369.51 1391.17 370.425C1390.54 371.333 1389.64 372.039 1388.46 372.543C1387.29 373.04 1385.87 373.288 1384.22 373.288C1382.57 373.288 1381.14 373.036 1379.92 372.533C1378.71 372.029 1377.76 371.283 1377.08 370.295C1376.4 369.301 1376.05 368.071 1376.01 366.606H1380.18C1380.22 367.289 1380.42 367.859 1380.76 368.317C1381.12 368.767 1381.58 369.109 1382.17 369.341C1382.76 369.566 1383.42 369.679 1384.17 369.679C1384.89 369.679 1385.53 369.573 1386.06 369.361C1386.61 369.149 1387.03 368.854 1387.33 368.476C1387.63 368.098 1387.77 367.664 1387.77 367.173C1387.77 366.716 1387.64 366.331 1387.37 366.02C1387.1 365.708 1386.71 365.443 1386.19 365.224C1385.68 365.006 1385.06 364.807 1384.31 364.628L1382.1 364.071C1380.38 363.653 1379.02 363 1378.03 362.112C1377.04 361.224 1376.54 360.027 1376.55 358.523C1376.54 357.29 1376.87 356.213 1377.53 355.291C1378.2 354.37 1379.12 353.651 1380.29 353.133C1381.45 352.616 1382.78 352.358 1384.26 352.358C1385.78 352.358 1387.1 352.616 1388.22 353.133C1389.36 353.651 1390.24 354.37 1390.87 355.291C1391.5 356.213 1391.82 357.28 1391.84 358.493H1387.72Z" fill="#C0C0C0"/>
<path d="M1394.24 356.186V352.636H1410.96V356.186H1404.73V373H1400.47V356.186H1394.24Z" fill="#C0C0C0"/>
<path d="M399.209 106.457C399.737 106.618 400.296 106.32 400.457 105.791L403.08 97.1823C403.241 96.654 402.943 96.0952 402.415 95.9342C401.886 95.7732 401.328 96.071 401.167 96.5993L398.835 104.252L391.182 101.92C390.654 101.759 390.095 102.057 389.934 102.585C389.773 103.114 390.071 103.672 390.599 103.833L399.209 106.457ZM119.835 106.05C120.651 104.811 121.485 103.564 122.338 102.311L120.685 101.186C119.826 102.447 118.986 103.703 118.165 104.95L119.835 106.05ZM127.574 94.8697C129.329 92.4536 131.149 90.0231 133.031 87.587L131.448 86.3645C129.554 88.8161 127.723 91.2623 125.956 93.6943L127.574 94.8697ZM138.698 80.4662C140.603 78.1429 142.562 75.8226 144.571 73.513L143.062 72.2002C141.04 74.5248 139.069 76.86 137.152 79.1981L138.698 80.4662ZM150.646 66.7366C152.694 64.521 154.787 62.3227 156.923 60.1488L155.497 58.7469C153.345 60.9359 151.238 63.149 149.178 65.3794L150.646 66.7366ZM163.401 53.7651C165.588 51.6784 167.815 49.6222 170.08 47.6033L168.749 46.1103C166.467 48.1447 164.223 50.2163 162.02 52.3181L163.401 53.7651ZM176.971 41.6772C179.305 39.7428 181.675 37.8522 184.078 36.0122L182.862 34.4243C180.438 36.2804 178.048 38.187 175.695 40.1373L176.971 41.6772ZM191.403 30.6376C193.887 28.8936 196.403 27.2078 198.949 25.5869L197.874 23.8999C195.303 25.5376 192.762 27.2401 190.254 29.0006L191.403 30.6376ZM206.718 20.8985C209.355 19.3949 212.02 17.965 214.71 16.616L213.814 14.8281C211.09 16.1938 208.394 17.6405 205.727 19.161L206.718 20.8985ZM222.923 12.7887C225.71 11.589 228.521 10.4804 231.353 9.47012L230.681 7.58638C227.807 8.61149 224.957 9.73581 222.132 10.9516L222.923 12.7887ZM239.982 6.72199C242.895 5.90612 245.829 5.1991 248.779 4.60858L248.386 2.64748C245.385 3.24823 242.403 3.96712 239.442 4.79607L239.982 6.72199ZM257.706 3.19087C260.694 2.84101 263.697 2.61583 266.712 2.52305L266.65 0.523995C263.576 0.618586 260.516 0.848106 257.473 1.20444L257.706 3.19087ZM275.736 2.64628C278.718 2.82103 281.709 3.13079 284.709 3.58296L285.007 1.60531C281.947 1.14397 278.894 0.827963 275.853 0.64971L275.736 2.64628ZM293.562 5.33319C296.447 6.04093 299.338 6.88609 302.232 7.87532L302.879 5.98282C299.929 4.9745 296.981 4.11266 294.038 3.39078L293.562 5.33319ZM310.671 11.1707C313.373 12.3595 316.077 13.6792 318.781 15.1353L319.73 13.3744C316.98 11.8936 314.228 10.5505 311.476 9.33999L310.671 11.1707ZM326.546 19.6974C329.032 21.2818 331.517 22.9862 334 24.8149L335.186 23.2046C332.668 21.3499 330.146 19.62 327.621 18.0108L326.546 19.6974ZM341.164 30.4479C343.421 32.3366 345.676 34.332 347.926 36.4372L349.292 34.9769C347.016 32.847 344.734 30.8271 342.448 28.914L341.164 30.4479ZM354.358 42.7713C356.436 44.9204 358.509 47.1666 360.577 49.5124L362.077 48.1899C359.99 45.8217 357.896 43.553 355.796 41.3812L354.358 42.7713ZM366.378 56.3747C368.251 58.6834 370.12 61.0767 371.983 63.5566L373.582 62.3554C371.704 59.8561 369.82 57.4431 367.931 55.1145L366.378 56.3747ZM377.313 70.9138C379.012 73.3421 380.705 75.8447 382.392 78.4232L384.065 77.3281C382.367 74.7329 380.663 72.2132 378.952 69.7676L377.313 70.9138ZM387.279 86.132C388.831 88.6581 390.378 91.2505 391.919 93.9104L393.649 92.9077C392.1 90.2333 390.544 87.6261 388.983 85.0849L387.279 86.132ZM396.393 101.853C397.136 103.21 397.878 104.582 398.617 105.97L400.383 105.03C399.639 103.634 398.894 102.255 398.147 100.893L396.393 101.853Z" fill="#D9D9D9"/>
<path d="M1019.38 111.924C1019.89 111.713 1020.14 111.128 1019.92 110.618L1016.48 102.301C1016.27 101.791 1015.69 101.548 1015.18 101.759C1014.67 101.97 1014.43 102.555 1014.64 103.065L1017.69 110.458L1010.3 113.516C1009.79 113.727 1009.55 114.312 1009.76 114.822C1009.97 115.332 1010.56 115.575 1011.07 115.364L1019.38 111.924ZM124.39 111.921C125.707 111.363 127.044 110.804 128.399 110.242L127.634 108.394C126.274 108.958 124.933 109.519 123.61 110.079L124.39 111.921ZM136.757 106.853C139.454 105.781 142.217 104.705 145.044 103.624L144.33 101.756C141.495 102.84 138.724 103.919 136.019 104.994L136.757 106.853ZM153.541 100.438C156.265 99.435 159.044 98.4298 161.875 97.4234L161.205 95.5389C158.367 96.5478 155.582 97.5555 152.85 98.561L153.541 100.438ZM170.437 94.4317C173.195 93.4844 175.999 92.5369 178.847 91.59L178.216 89.6921C175.361 90.6411 172.552 91.5907 169.787 92.5401L170.437 94.4317ZM187.431 88.7826C190.229 87.8823 193.066 86.9834 195.944 86.0863L195.348 84.177C192.465 85.0758 189.622 85.9766 186.819 86.8787L187.431 88.7826ZM204.524 83.4525C207.367 82.5936 210.245 81.7372 213.158 80.8839L212.596 78.9645C209.677 79.8195 206.794 80.6775 203.946 81.538L204.524 83.4525ZM221.721 78.4138C224.608 77.5938 227.528 76.7772 230.479 75.9646L229.948 74.0364C226.992 74.8503 224.067 75.6684 221.175 76.4899L221.721 78.4138ZM239.027 73.6466C241.902 72.8788 244.805 72.1153 247.736 71.3565L247.235 69.4203C244.299 70.1804 241.391 70.9452 238.511 71.7143L239.027 73.6466ZM256.445 69.1367C259.307 68.4186 262.195 67.7053 265.107 66.9971L264.634 65.0538C261.717 65.763 258.825 66.4775 255.959 67.1968L256.445 69.1367ZM273.917 64.8888C276.786 64.2132 279.678 63.5429 282.593 62.8782L282.148 60.9283C279.229 61.594 276.332 62.2654 273.458 62.9421L273.917 64.8888ZM291.342 60.9156C294.271 60.2692 297.223 59.6287 300.195 58.9946L299.778 57.0386C296.801 57.6737 293.845 58.3151 290.911 58.9626L291.342 60.9156ZM308.889 57.1711C311.806 56.5694 314.743 55.9741 317.7 55.3854L317.309 53.4239C314.348 54.0135 311.407 54.6097 308.485 55.2123L308.889 57.1711ZM326.555 53.6536C329.454 53.0967 332.371 52.5465 335.305 52.0032L334.941 50.0366C332.002 50.5807 329.081 51.1318 326.177 51.6895L326.555 53.6536ZM344.159 50.3941C347.1 49.8699 350.057 49.3528 353.031 48.843L352.693 46.8718C349.715 47.3823 346.753 47.9002 343.808 48.4252L344.159 50.3941ZM361.822 47.3657C364.768 46.8806 367.73 46.4029 370.707 45.9328L370.395 43.9573C367.414 44.428 364.448 44.9065 361.497 45.3923L361.822 47.3657ZM379.607 44.5574C382.533 44.115 385.474 43.6802 388.428 43.2532L388.142 41.2738C385.183 41.7014 382.239 42.1368 379.308 42.5798L379.607 44.5574ZM397.332 41.996C400.298 41.5871 403.277 41.1863 406.27 40.7936L406.01 38.8106C403.013 39.2038 400.029 39.6053 397.059 40.0148L397.332 41.996ZM415.111 39.6628C418.07 39.294 421.042 38.9334 424.026 38.5812L423.792 36.595C420.803 36.9477 417.827 37.3088 414.863 37.6782L415.111 39.6628ZM433.007 37.5512C435.947 37.2238 438.899 36.9047 441.861 36.5941L441.653 34.605C438.686 34.916 435.73 35.2356 432.786 35.5635L433.007 37.5512ZM450.783 35.6883C453.768 35.3951 456.763 35.1106 459.77 34.8352L459.587 32.8435C456.576 33.1194 453.576 33.4042 450.587 33.6979L450.783 35.6883ZM468.671 34.0489C471.636 33.7968 474.61 33.5535 477.594 33.3193L477.437 31.3255C474.449 31.56 471.47 31.8036 468.502 32.0561L468.671 34.0489ZM486.575 32.6443C489.551 32.4305 492.537 32.2258 495.532 32.0305L495.402 30.0347C492.402 30.2304 489.412 30.4353 486.432 30.6495L486.575 32.6443ZM504.451 31.4782C507.433 31.3034 510.424 31.1379 513.424 30.982L513.32 28.9847C510.316 29.1408 507.321 29.3065 504.334 29.4816L504.451 31.4782ZM522.433 30.544C525.396 30.4098 528.367 30.2851 531.347 30.1701L531.269 28.1715C528.286 28.2868 525.31 28.4117 522.343 28.546L522.433 30.544ZM540.307 29.8539C543.302 29.7583 546.304 29.6725 549.314 29.5968L549.264 27.5974C546.249 27.6733 543.243 27.7592 540.243 27.8549L540.307 29.8539ZM558.27 29.4015C561.245 29.3467 564.228 29.3017 567.217 29.2668L567.193 27.267C564.2 27.3019 561.213 27.3469 558.234 27.4018L558.27 29.4015ZM576.204 29.1926C579.201 29.1781 582.203 29.1738 585.213 29.1799L585.217 27.1799C582.203 27.1738 579.195 27.1781 576.195 27.1927L576.204 29.1926ZM594.142 29.2286C597.125 29.255 600.114 29.2918 603.108 29.3391L603.14 27.3393C600.141 27.292 597.147 27.2552 594.16 27.2287L594.142 29.2286ZM612.111 29.5125C615.092 29.5803 618.08 29.6586 621.072 29.7476L621.132 27.7485C618.134 27.6594 615.142 27.5809 612.156 27.513L612.111 29.5125ZM630.015 30.0448C633.001 30.1545 635.992 30.2749 638.989 30.4063L639.077 28.4082C636.075 28.2767 633.079 28.156 630.088 28.0462L630.015 30.0448ZM647.994 30.833C650.962 30.9842 653.935 31.1462 656.912 31.3192L657.028 29.3226C654.046 29.1493 651.068 28.9871 648.096 28.8356L647.994 30.833ZM665.856 31.8709C668.842 32.0658 671.832 32.2718 674.827 32.4891L674.971 30.4943C671.972 30.2767 668.977 30.0704 665.986 29.8751L665.856 31.8709ZM683.787 33.1719C686.753 33.4088 689.723 33.6569 692.697 33.9162L692.871 31.9238C689.892 31.664 686.917 31.4156 683.946 31.1783L683.787 33.1719ZM701.631 34.7283C704.613 35.0104 707.599 35.3039 710.588 35.6091L710.791 33.6194C707.797 33.3137 704.806 33.0197 701.82 32.7372L701.631 34.7283ZM719.5 36.5523C722.462 36.8769 725.426 37.2129 728.394 37.5606L728.627 35.5742C725.654 35.2259 722.685 34.8893 719.718 34.5642L719.5 36.5523ZM737.308 38.6389C740.282 39.01 743.259 39.393 746.239 39.7879L746.502 37.8052C743.517 37.4096 740.535 37.026 737.555 36.6543L737.308 38.6389ZM755.101 40.9964C758.054 41.4105 761.009 41.8365 763.967 42.2745L764.26 40.2961C761.297 39.8573 758.336 39.4306 755.378 39.0158L755.101 40.9964ZM772.849 43.6245C775.809 44.0861 778.771 44.5598 781.735 45.0458L782.059 43.0721C779.089 42.5853 776.122 42.1108 773.157 41.6484L772.849 43.6245ZM790.551 46.526C793.491 47.0316 796.434 47.5493 799.378 48.0794L799.733 46.111C796.783 45.58 793.835 45.0614 790.889 44.555L790.551 46.526ZM808.217 49.7065C811.157 50.2598 814.099 50.8254 817.042 51.4035L817.428 49.441C814.479 48.8618 811.532 48.2952 808.587 47.741L808.217 49.7065ZM825.811 53.1622C828.735 53.7609 831.661 54.3721 834.588 54.9959L835.005 53.0398C832.073 52.4149 829.142 51.8026 826.212 51.2029L825.811 53.1622ZM843.374 56.9052C846.291 57.5517 849.21 58.2108 852.13 58.8827L852.578 56.9336C849.653 56.2605 846.729 55.6002 843.807 54.9526L843.374 56.9052ZM860.841 60.9246C863.745 61.6179 866.65 62.3241 869.556 63.0431L870.037 61.1016C867.125 60.3813 864.215 59.6739 861.305 58.9792L860.841 60.9246ZM878.277 65.2391C881.169 65.9803 884.063 66.7344 886.956 67.5015L887.469 65.5683C884.57 64.7997 881.671 64.0442 878.773 63.3017L878.277 65.2391ZM895.596 69.8306C898.477 70.62 901.358 71.4224 904.239 72.238L904.783 70.3137C901.897 69.4965 899.011 68.6926 896.125 67.9018L895.596 69.8306ZM912.882 74.7245C915.747 75.5618 918.612 76.4122 921.477 77.2759L922.054 75.3611C919.184 74.4957 916.313 73.6437 913.443 72.8048L912.882 74.7245ZM930.034 79.8956C932.886 80.782 935.738 81.6818 938.59 82.5949L939.2 80.6902C936.343 79.7753 933.485 78.8738 930.627 77.9857L930.034 79.8956ZM947.144 85.3749C949.978 86.3094 952.812 87.2573 955.645 88.2187L956.288 86.3248C953.449 85.3615 950.61 84.4118 947.771 83.4755L947.144 85.3749ZM964.106 91.1312C966.926 92.1155 969.745 93.1133 972.564 94.1248L973.239 92.2423C970.416 91.2289 967.591 90.2291 964.765 89.2429L964.106 91.1312ZM981.017 97.2002C983.817 98.2329 986.616 99.2793 989.414 100.339L990.122 98.469C987.319 97.4069 984.514 96.3585 981.709 95.3238L981.017 97.2002ZM997.767 103.546C1000.55 104.628 1003.33 105.725 1006.11 106.835L1006.85 104.977C1004.07 103.865 1001.28 102.766 998.492 101.682L997.767 103.546ZM1014.45 110.206C1015.84 110.775 1017.23 111.348 1018.62 111.924L1019.38 110.076C1017.99 109.499 1016.6 108.926 1015.21 108.356L1014.45 110.206Z" fill="#D9D9D9"/>
<path d="M485.313 307.018C484.77 307.121 484.414 307.645 484.518 308.187L486.202 317.028C486.306 317.571 486.829 317.927 487.372 317.823C487.914 317.72 488.27 317.196 488.167 316.654L486.67 308.795L494.528 307.298C495.071 307.194 495.427 306.671 495.323 306.128C495.22 305.586 494.696 305.23 494.154 305.333L485.313 307.018ZM484.938 308.827C486.186 309.676 487.435 310.52 488.684 311.36L489.8 309.7C488.554 308.862 487.308 308.02 486.062 307.173L484.938 308.827ZM496.176 316.34C498.673 317.982 501.171 319.604 503.668 321.208L504.749 319.525C502.257 317.925 499.766 316.306 497.275 314.669L496.176 316.34ZM511.158 325.964C513.661 327.535 516.164 329.087 518.666 330.621L519.711 328.915C517.215 327.385 514.718 325.837 512.221 324.27L511.158 325.964ZM526.38 335.291C528.951 336.828 531.521 338.347 534.091 339.845L535.099 338.118C532.535 336.623 529.971 335.108 527.406 333.575L526.38 335.291ZM541.799 344.285C544.368 345.746 546.936 347.187 549.503 348.61L550.472 346.861C547.911 345.442 545.35 344.004 542.788 342.546L541.799 344.285ZM557.381 352.919C560.021 354.344 562.66 355.748 565.298 357.133L566.227 355.363C563.596 353.981 560.964 352.58 558.33 351.159L557.381 352.919ZM573.209 361.23C575.845 362.577 578.48 363.903 581.114 365.211L582.003 363.42C579.376 362.115 576.748 360.792 574.119 359.449L573.209 361.23ZM589.15 369.143C591.853 370.446 594.556 371.729 597.257 372.992L598.104 371.181C595.41 369.921 592.715 368.641 590.018 367.341L589.15 369.143ZM605.355 376.723C608.053 377.946 610.749 379.15 613.444 380.335L614.249 378.504C611.561 377.322 608.872 376.122 606.181 374.901L605.355 376.723ZM621.646 383.881C624.407 385.056 627.167 386.21 629.924 387.344L630.685 385.495C627.935 384.364 625.183 383.212 622.429 382.041L621.646 383.881ZM638.191 390.686C640.945 391.78 643.696 392.854 646.446 393.909L647.162 392.041C644.42 390.99 641.676 389.919 638.93 388.827L638.191 390.686ZM654.816 397.06C657.628 398.099 660.438 399.118 663.245 400.116L663.916 398.232C661.116 397.236 658.314 396.22 655.509 395.184L654.816 397.06ZM671.66 403.051C674.463 404.009 677.263 404.947 680.06 405.866L680.684 403.966C677.894 403.05 675.102 402.114 672.307 401.159L671.66 403.051ZM688.593 408.609C691.45 409.507 694.303 410.385 697.153 411.243L697.729 409.328C694.887 408.473 692.042 407.597 689.194 406.701L688.593 408.609ZM705.694 413.756C708.538 414.573 711.379 415.371 714.217 416.148L714.746 414.219C711.916 413.444 709.083 412.649 706.246 411.833L705.694 413.756ZM722.905 418.47C725.797 419.224 728.686 419.957 731.571 420.67L732.051 418.728C729.174 418.017 726.293 417.286 723.409 416.535L722.905 418.47ZM740.214 422.748C743.111 423.426 746.003 424.083 748.892 424.72L749.323 422.767C746.442 422.132 743.558 421.476 740.67 420.801L740.214 422.748ZM757.666 426.597C760.587 427.203 763.503 427.788 766.415 428.354L766.796 426.39C763.893 425.827 760.985 425.243 758.072 424.639L757.666 426.597ZM775.137 429.99C778.08 430.523 781.019 431.036 783.952 431.529L784.284 429.557C781.358 429.065 778.428 428.554 775.493 428.022L775.137 429.99ZM792.789 432.957C795.73 433.412 798.665 433.848 801.595 434.265L801.877 432.284C798.955 431.869 796.028 431.435 793.095 430.98L792.789 432.957ZM810.397 435.459C813.372 435.843 816.342 436.208 819.306 436.552L819.537 434.566C816.581 434.222 813.62 433.859 810.653 433.475L810.397 435.459ZM828.18 437.528C831.132 437.833 834.078 438.119 837.018 438.386L837.199 436.395C834.267 436.128 831.329 435.843 828.386 435.538L828.18 437.528ZM845.931 439.139C848.913 439.372 851.888 439.585 854.857 439.779L854.987 437.783C852.027 437.59 849.06 437.377 846.087 437.145L845.931 439.139ZM863.743 440.304C866.712 440.461 869.675 440.599 872.631 440.718L872.711 438.719C869.764 438.601 866.809 438.463 863.848 438.307L863.743 440.304ZM881.593 441.022C884.572 441.105 887.545 441.168 890.51 441.213L890.54 439.213C887.583 439.168 884.619 439.105 881.648 439.023L881.593 441.022ZM899.381 441.293C902.379 441.301 905.369 441.291 908.351 441.262L908.332 439.262C905.358 439.291 902.377 439.301 899.387 439.293L899.381 441.293ZM917.285 441.12C920.254 441.054 923.215 440.97 926.168 440.869L926.099 438.87C923.155 438.971 920.202 439.055 917.241 439.12L917.285 441.12ZM935.098 440.506C938.086 440.367 941.065 440.209 944.034 440.034L943.916 438.037C940.955 438.212 937.984 438.369 935.005 438.509L935.098 440.506ZM952.913 439.455C955.885 439.243 958.847 439.013 961.798 438.767L961.632 436.774C958.688 437.02 955.734 437.248 952.771 437.46L952.913 439.455ZM970.722 437.966C973.687 437.682 976.641 437.381 979.584 437.063L979.369 435.074C976.434 435.392 973.488 435.692 970.531 435.975L970.722 437.966ZM988.418 436.055C991.396 435.697 994.362 435.322 997.317 434.93L997.054 432.948C994.107 433.338 991.149 433.712 988.18 434.069L988.418 436.055ZM1006.15 433.707C1009.09 433.282 1012.01 432.841 1014.92 432.384L1014.62 430.408C1011.71 430.864 1008.79 431.304 1005.86 431.727L1006.15 433.707ZM1023.79 430.94C1026.73 430.443 1029.66 429.93 1032.57 429.401L1032.21 427.433C1029.31 427.96 1026.39 428.472 1023.45 428.968L1023.79 430.94ZM1041.29 427.768C1044.24 427.198 1047.17 426.611 1050.1 426.01L1049.69 424.051C1046.78 424.651 1043.85 425.235 1040.91 425.805L1041.29 427.768ZM1058.82 424.161C1061.72 423.529 1064.6 422.882 1067.47 422.222L1067.03 420.273C1064.16 420.932 1061.29 421.576 1058.4 422.207L1058.82 424.161ZM1076.22 420.154C1079.12 419.45 1082 418.732 1084.87 418L1084.38 416.062C1081.52 416.792 1078.64 417.508 1075.75 418.21L1076.22 420.154ZM1093.46 415.757C1096.36 414.98 1099.25 414.189 1102.12 413.385L1101.58 411.459C1098.72 412.261 1095.84 413.05 1092.94 413.825L1093.46 415.757ZM1110.69 410.932C1113.54 410.096 1116.38 409.248 1119.2 408.386L1118.62 406.473C1115.81 407.332 1112.97 408.179 1110.13 409.013L1110.69 410.932ZM1127.77 405.715C1130.61 404.812 1133.43 403.897 1136.23 402.97L1135.61 401.071C1132.81 401.996 1130 402.909 1127.17 403.809L1127.77 405.715ZM1144.69 400.118C1147.52 399.142 1150.34 398.153 1153.14 397.154L1152.47 395.27C1149.68 396.267 1146.87 397.253 1144.03 398.227L1144.69 400.118ZM1161.47 394.123C1164.29 393.079 1167.09 392.024 1169.86 390.959L1169.15 389.092C1166.38 390.154 1163.59 391.206 1160.78 392.247L1161.47 394.123ZM1178.18 387.708C1180.94 386.611 1183.68 385.504 1186.39 384.388L1185.63 382.539C1182.93 383.652 1180.2 384.756 1177.44 385.85L1178.18 387.708ZM1194.7 380.912C1197.44 379.745 1200.16 378.568 1202.85 377.383L1202.05 375.553C1199.36 376.734 1196.65 377.908 1193.91 379.072L1194.7 380.912ZM1211.01 373.734C1213.75 372.49 1216.45 371.238 1219.13 369.979L1218.28 368.169C1215.61 369.424 1212.91 370.673 1210.18 371.913L1211.01 373.734ZM1227.11 366.169C1229.84 364.846 1232.54 363.516 1235.2 362.18L1234.3 360.392C1231.65 361.724 1228.96 363.05 1226.24 364.37L1227.11 366.169ZM1243.1 358.157C1245.78 356.769 1248.43 355.375 1251.04 353.977L1250.1 352.214C1247.49 353.607 1244.85 354.997 1242.18 356.381L1243.1 358.157ZM1258.87 349.721C1261.5 348.268 1264.09 346.812 1266.65 345.353L1265.65 343.617C1263.11 345.07 1260.52 346.522 1257.9 347.971L1258.87 349.721ZM1274.39 340.857C1276.97 339.333 1279.51 337.809 1282 336.285L1280.96 334.578C1278.47 336.097 1275.94 337.616 1273.37 339.135L1274.39 340.857ZM1289.63 331.539C1292.17 329.936 1294.65 328.335 1297.08 326.737L1295.99 325.065C1293.56 326.657 1291.09 328.252 1288.56 329.849L1289.63 331.539ZM1304.56 321.736C1307.05 320.039 1309.48 318.348 1311.86 316.665L1310.7 315.033C1308.34 316.709 1305.91 318.393 1303.44 320.084L1304.56 321.736ZM1319.12 311.405C1320.3 310.533 1321.46 309.664 1322.6 308.798L1321.4 307.202C1320.26 308.064 1319.1 308.929 1317.93 309.797L1319.12 311.405Z" fill="#D9D9D9"/>
<path d="M794.169 317.056C793.648 317.239 793.374 317.81 793.556 318.331L796.534 326.824C796.717 327.345 797.287 327.62 797.808 327.437C798.33 327.254 798.604 326.684 798.421 326.162L795.775 318.613L803.324 315.966C803.845 315.783 804.12 315.213 803.937 314.692C803.754 314.17 803.184 313.896 802.662 314.079L794.169 317.056ZM794.067 318.901C795.413 319.549 796.76 320.182 798.106 320.8L798.941 318.983C797.605 318.369 796.269 317.741 794.933 317.099L794.067 318.901ZM806.238 324.365C808.992 325.515 811.744 326.607 814.491 327.642L815.196 325.77C812.471 324.743 809.741 323.66 807.009 322.519L806.238 324.365ZM822.855 330.625C825.683 331.577 828.505 332.472 831.319 333.311L831.89 331.394C829.098 330.562 826.299 329.675 823.493 328.729L822.855 330.625ZM839.874 335.696C842.762 336.447 845.641 337.14 848.508 337.779L848.942 335.827C846.098 335.193 843.242 334.505 840.377 333.76L839.874 335.696ZM857.209 339.558C860.144 340.105 863.064 340.596 865.968 341.034L866.266 339.057C863.385 338.622 860.487 338.135 857.576 337.592L857.209 339.558ZM874.773 342.208C877.739 342.551 880.686 342.841 883.612 343.079L883.775 341.086C880.871 340.849 877.947 340.562 875.003 340.221L874.773 342.208ZM892.475 343.652C895.46 343.795 898.42 343.886 901.351 343.929L901.38 341.929C898.47 341.887 895.533 341.796 892.571 341.655L892.475 343.652ZM910.229 343.912C913.219 343.857 916.176 343.753 919.098 343.604L918.996 341.607C916.096 341.755 913.16 341.858 910.192 341.912L910.229 343.912ZM927.946 343.01C930.939 342.76 933.89 342.465 936.795 342.128L936.565 340.142C933.68 340.476 930.751 340.769 927.78 341.017L927.946 343.01ZM945.605 340.963C948.58 340.52 951.5 340.036 954.362 339.516L954.004 337.548C951.163 338.065 948.264 338.545 945.311 338.984L945.605 340.963ZM963.057 337.788C966.021 337.148 968.912 336.472 971.726 335.765L971.239 333.825C968.446 334.527 965.577 335.198 962.636 335.833L963.057 337.788ZM980.287 333.459C983.226 332.612 986.064 331.736 988.794 330.839L988.17 328.939C985.463 329.828 982.649 330.697 979.734 331.537L980.287 333.459ZM997.16 327.911C1000.08 326.823 1002.84 325.721 1005.43 324.617L1004.65 322.777C1002.08 323.868 999.35 324.96 996.461 326.037L997.16 327.911ZM1013.52 320.914C1014.91 320.229 1016.23 319.551 1017.47 318.881L1016.53 317.119C1015.3 317.778 1014.01 318.446 1012.64 319.12L1013.52 320.914Z" fill="#D9D9D9"/>
<path d="M310.414 220.414C311.195 219.633 311.195 218.367 310.414 217.586L297.686 204.858C296.905 204.077 295.639 204.077 294.858 204.858C294.077 205.639 294.077 206.905 294.858 207.686L306.172 219L294.858 230.314C294.077 231.095 294.077 232.361 294.858 233.142C295.639 233.923 296.905 233.923 297.686 233.142L310.414 220.414ZM215 221H309V217H215V221Z" fill="#D9D9D9"/>
<path d="M627.414 220.414C628.195 219.633 628.195 218.367 627.414 217.586L614.686 204.858C613.905 204.077 612.639 204.077 611.858 204.858C611.077 205.639 611.077 206.905 611.858 207.686L623.172 219L611.858 230.314C611.077 231.095 611.077 232.361 611.858 233.142C612.639 233.923 613.905 233.923 614.686 233.142L627.414 220.414ZM532 221H626V217H532V221Z" fill="#D9D9D9"/>
<path d="M944.414 220.414C945.195 219.633 945.195 218.367 944.414 217.586L931.686 204.858C930.905 204.077 929.639 204.077 928.858 204.858C928.077 205.639 928.077 206.905 928.858 207.686L940.172 219L928.858 230.314C928.077 231.095 928.077 232.361 928.858 233.142C929.639 233.923 930.905 233.923 931.686 233.142L944.414 220.414ZM849 221H943V217H849V221Z" fill="#D9D9D9"/>
<path d="M1261.41 220.414C1262.2 219.633 1262.2 218.367 1261.41 217.586L1248.69 204.858C1247.91 204.077 1246.64 204.077 1245.86 204.858C1245.08 205.639 1245.08 206.905 1245.86 207.686L1257.17 219L1245.86 230.314C1245.08 231.095 1245.08 232.361 1245.86 233.142C1246.64 233.923 1247.91 233.923 1248.69 233.142L1261.41 220.414ZM1166 221H1260V217H1166V221Z" fill="#D9D9D9"/>
<defs>
<clipPath id="clip0_3_82">
<rect width="117" height="86" fill="white" transform="translate(45 172)"/>
</clipPath>
<clipPath id="clip1_3_82">
<rect width="115" height="115" fill="white" transform="translate(363 157)"/>
</clipPath>
<clipPath id="clip2_3_82">
<rect width="111" height="111" fill="white" transform="translate(682 159)"/>
</clipPath>
<clipPath id="clip3_3_82">
<rect width="101" height="98" fill="white" transform="translate(1004 166)"/>
</clipPath>
<clipPath id="clip4_3_82">
<rect width="77" height="109" fill="white" transform="translate(1342 160)"/>
</clipPath>
</defs>
</svg>
